<svg id="_20-rotation" height="512" viewBox="0 0 96 96" width="512" xmlns="http://www.w3.org/2000/svg" xmlns:xlink="http://www.w3.org/1999/xlink" data-name="20-rotation"><linearGradient id="New_Gradient_Swatch_1" gradientUnits="userSpaceOnUse" x1="9.172" x2="86.828" y1="86.828" y2="9.172"><stop offset="0" stop-color="#34cdfa"/><stop offset="1" stop-color="#e8d9f1"/></linearGradient><g id="Flat"><path d="m49.789 40.422-16-8a4 4 0 0 0 -5.789 3.578v20a4 4 0 0 0 2.211 3.578l16 8a4 4 0 0 0 5.789-3.578v-20a4 4 0 0 0 -2.211-3.578z" fill="#99e6fd"/><path d="m66.1 32.6a4 4 0 0 0 -3.892-.175l-14.208 7.103v28.472a4 4 0 0 0 1.789-.422l16-8a4 4 0 0 0 2.211-3.578v-20a4 4 0 0 0 -1.9-3.4z" fill="#ccf2fe"/><path d="m67.57 34.215a3.992 3.992 0 0 0 -1.781-1.793l-16-8a4 4 0 0 0 -3.578 0l-16 8a3.992 3.992 0 0 0 -1.781 1.793l19.57 9.785z" fill="#e6f9fe"/><path d="m64.752 95.18c-14.023 0-30.339-7.11-43.58-20.352-21.41-21.41-26.794-50.863-12-65.656s44.246-9.412 65.656 12 26.794 50.863 12 65.656c-5.643 5.645-13.428 8.352-22.076 8.352zm-33.464-86.458c-6.738 0-12.435 2.083-16.46 6.106-5.434 5.435-7.328 13.923-5.328 23.902 2.109 10.57 8.265 21.378 17.328 30.442s19.872 15.219 30.442 17.328c9.981 2 18.466.1 23.9-5.332s7.33-13.919 5.33-23.898c-2.109-10.57-8.265-21.378-17.328-30.442s-19.872-15.219-30.442-17.328a38.019 38.019 0 0 0 -7.442-.778z" fill="#99e6fd"/><path d="m31.248 95.18c-8.653 0-16.432-2.706-22.076-8.352-14.794-14.793-9.41-44.246 12-65.656s50.866-26.793 65.656-12 9.41 44.246-12 65.656c-13.24 13.24-29.557 20.352-43.58 20.352zm33.464-86.458a38.019 38.019 0 0 0 -7.442.778c-10.57 2.109-21.378 8.265-30.442 17.328s-15.219 19.872-17.328 30.442c-2 9.979-.1 18.467 5.332 23.9s13.918 7.33 23.898 5.33c10.57-2.109 21.378-8.265 30.442-17.328s15.219-19.872 17.328-30.442c2-9.979.1-18.467-5.332-23.9-4.02-4.025-9.719-6.108-16.456-6.108z" fill="url(#New_Gradient_Swatch_1)"/><path d="m86.828 86.828-5.656-5.656c11.674-11.675 6.291-36.053-12-54.344s-42.672-23.674-54.344-12l-5.656-5.656c14.791-14.794 44.246-9.412 65.656 12s26.794 50.863 12 65.656z" fill="#99e6fd"/></g></svg>